<mxfile host="app.diagrams.net" agent="Mozilla/5.0 (Macintosh; Intel Mac OS X 10_15_7) AppleWebKit/537.36 (KHTML, like Gecko) Chrome/131.0.0.0 Safari/537.36" version="24.7.17">
  <diagram name="Page-1" id="58cdce13-f638-feb5-8d6f-7d28b1aa9fa0">
    <mxGraphModel dx="2385" dy="1400" grid="1" gridSize="10" guides="1" tooltips="1" connect="1" arrows="1" fold="1" page="1" pageScale="1" pageWidth="1100" pageHeight="850" background="none" math="0" shadow="0">
      <root>
        <mxCell id="0" />
        <mxCell id="1" parent="0" />
        <mxCell id="SwNctEigx0UuT4JYwxBm-1" value="" style="ellipse;html=1;shape=endState;fillColor=strokeColor;" vertex="1" parent="1">
          <mxGeometry x="1050" y="365" width="30" height="30" as="geometry" />
        </mxCell>
        <mxCell id="SwNctEigx0UuT4JYwxBm-2" value="" style="shape=ellipse;html=1;dashed=0;whiteSpace=wrap;aspect=fixed;strokeWidth=5;perimeter=ellipsePerimeter;" vertex="1" parent="1">
          <mxGeometry x="40" y="365" width="30" height="30" as="geometry" />
        </mxCell>
        <mxCell id="SwNctEigx0UuT4JYwxBm-39" value="" style="edgeStyle=orthogonalEdgeStyle;rounded=0;orthogonalLoop=1;jettySize=auto;html=1;" edge="1" parent="1" source="SwNctEigx0UuT4JYwxBm-2" target="SwNctEigx0UuT4JYwxBm-34">
          <mxGeometry relative="1" as="geometry">
            <mxPoint x="70" y="380" as="sourcePoint" />
            <mxPoint x="240" y="380" as="targetPoint" />
          </mxGeometry>
        </mxCell>
        <mxCell id="SwNctEigx0UuT4JYwxBm-83" style="edgeStyle=orthogonalEdgeStyle;rounded=0;orthogonalLoop=1;jettySize=auto;html=1;fontFamily=Helvetica;fontSize=12;fontColor=default;entryX=0;entryY=0.5;entryDx=0;entryDy=0;" edge="1" parent="1" source="SwNctEigx0UuT4JYwxBm-34" target="SwNctEigx0UuT4JYwxBm-85">
          <mxGeometry relative="1" as="geometry">
            <mxPoint x="560" y="381.25" as="targetPoint" />
            <Array as="points">
              <mxPoint x="560" y="380" />
              <mxPoint x="560" y="380" />
            </Array>
          </mxGeometry>
        </mxCell>
        <mxCell id="SwNctEigx0UuT4JYwxBm-86" style="edgeStyle=orthogonalEdgeStyle;rounded=0;orthogonalLoop=1;jettySize=auto;html=1;entryX=0.5;entryY=0;entryDx=0;entryDy=0;fontFamily=Helvetica;fontSize=12;fontColor=default;" edge="1" parent="1" source="SwNctEigx0UuT4JYwxBm-34" target="SwNctEigx0UuT4JYwxBm-76">
          <mxGeometry relative="1" as="geometry" />
        </mxCell>
        <mxCell id="SwNctEigx0UuT4JYwxBm-89" style="edgeStyle=orthogonalEdgeStyle;rounded=0;orthogonalLoop=1;jettySize=auto;html=1;entryX=0.5;entryY=1;entryDx=0;entryDy=0;fontFamily=Helvetica;fontSize=12;fontColor=default;" edge="1" parent="1" source="SwNctEigx0UuT4JYwxBm-34" target="SwNctEigx0UuT4JYwxBm-80">
          <mxGeometry relative="1" as="geometry" />
        </mxCell>
        <mxCell id="SwNctEigx0UuT4JYwxBm-34" value="Idle" style="html=1;align=center;verticalAlign=top;rounded=1;absoluteArcSize=1;arcSize=28;dashed=0;whiteSpace=wrap;" vertex="1" parent="1">
          <mxGeometry x="360" y="360" width="90" height="40" as="geometry" />
        </mxCell>
        <mxCell id="SwNctEigx0UuT4JYwxBm-42" value="(S1 or S2 )and D0" style="text;html=1;align=center;verticalAlign=middle;resizable=0;points=[];autosize=1;strokeColor=none;fillColor=none;fontFamily=Helvetica;fontSize=12;fontColor=default;" vertex="1" parent="1">
          <mxGeometry x="490" y="347.5" width="120" height="30" as="geometry" />
        </mxCell>
        <mxCell id="SwNctEigx0UuT4JYwxBm-54" value="(S1 and&amp;nbsp; S2 )and D0" style="text;html=1;align=center;verticalAlign=middle;resizable=0;points=[];autosize=1;strokeColor=none;fillColor=none;fontFamily=Helvetica;fontSize=12;fontColor=default;" vertex="1" parent="1">
          <mxGeometry x="150" y="830" width="130" height="30" as="geometry" />
        </mxCell>
        <mxCell id="SwNctEigx0UuT4JYwxBm-63" value="(S1 or S2 )and D1" style="text;html=1;align=center;verticalAlign=middle;resizable=0;points=[];autosize=1;strokeColor=none;fillColor=none;fontFamily=Helvetica;fontSize=12;fontColor=default;" vertex="1" parent="1">
          <mxGeometry x="30" y="800" width="120" height="30" as="geometry" />
        </mxCell>
        <mxCell id="SwNctEigx0UuT4JYwxBm-71" value="(S1 or S2 )and D2" style="text;html=1;align=center;verticalAlign=middle;resizable=0;points=[];autosize=1;strokeColor=none;fillColor=none;fontFamily=Helvetica;fontSize=12;fontColor=default;" vertex="1" parent="1">
          <mxGeometry x="40" y="720" width="120" height="30" as="geometry" />
        </mxCell>
        <mxCell id="SwNctEigx0UuT4JYwxBm-76" value="Critical Risk&lt;div&gt;---------------------------&lt;/div&gt;&lt;div&gt;turn on Light 1 and Light 2, activate brake level 2&lt;/div&gt;" style="html=1;align=center;verticalAlign=top;rounded=1;absoluteArcSize=1;arcSize=10;dashed=0;whiteSpace=wrap;strokeColor=default;fontFamily=Helvetica;fontSize=12;fontColor=default;fillColor=default;" vertex="1" parent="1">
          <mxGeometry x="335" y="580" width="140" height="80" as="geometry" />
        </mxCell>
        <mxCell id="SwNctEigx0UuT4JYwxBm-78" value="Collision Risk&lt;div&gt;----------------------&lt;/div&gt;&lt;div&gt;activate brake level 3&lt;/div&gt;" style="html=1;align=center;verticalAlign=top;rounded=1;absoluteArcSize=1;arcSize=10;dashed=0;whiteSpace=wrap;strokeColor=default;fontFamily=Helvetica;fontSize=12;fontColor=default;fillColor=default;" vertex="1" parent="1">
          <mxGeometry x="770" y="530" width="140" height="70" as="geometry" />
        </mxCell>
        <mxCell id="SwNctEigx0UuT4JYwxBm-79" value="Moderate Risk&lt;div&gt;--------------------------------&lt;/div&gt;&lt;div&gt;turn on Light 2&lt;/div&gt;" style="html=1;align=center;verticalAlign=top;rounded=1;absoluteArcSize=1;arcSize=10;dashed=0;whiteSpace=wrap;strokeColor=default;fontFamily=Helvetica;fontSize=12;fontColor=default;fillColor=default;" vertex="1" parent="1">
          <mxGeometry x="760" y="160" width="140" height="70" as="geometry" />
        </mxCell>
        <mxCell id="SwNctEigx0UuT4JYwxBm-80" value="Higher Risk&lt;div&gt;---------------------------&lt;/div&gt;&lt;div&gt;&amp;nbsp;turn on Light 1 and Light 2, activate brake level&amp;nbsp;&lt;/div&gt;" style="html=1;align=center;verticalAlign=top;rounded=1;absoluteArcSize=1;arcSize=10;dashed=0;whiteSpace=wrap;strokeColor=default;fontFamily=Helvetica;fontSize=12;fontColor=default;fillColor=default;" vertex="1" parent="1">
          <mxGeometry x="335" y="70" width="140" height="80" as="geometry" />
        </mxCell>
        <mxCell id="SwNctEigx0UuT4JYwxBm-85" value="Light Risk&lt;div&gt;--------------------------------&lt;/div&gt;&lt;div&gt;turn on Light 1&lt;/div&gt;" style="html=1;align=center;verticalAlign=top;rounded=1;absoluteArcSize=1;arcSize=10;dashed=0;whiteSpace=wrap;strokeColor=default;fontFamily=Helvetica;fontSize=12;fontColor=default;fillColor=default;" vertex="1" parent="1">
          <mxGeometry x="640" y="347.5" width="140" height="65" as="geometry" />
        </mxCell>
        <mxCell id="SwNctEigx0UuT4JYwxBm-88" style="edgeStyle=orthogonalEdgeStyle;rounded=0;orthogonalLoop=1;jettySize=auto;html=1;exitX=0.5;exitY=1;exitDx=0;exitDy=0;entryX=0.75;entryY=1;entryDx=0;entryDy=0;fontFamily=Helvetica;fontSize=12;fontColor=default;" edge="1" parent="1" source="SwNctEigx0UuT4JYwxBm-76" target="SwNctEigx0UuT4JYwxBm-76">
          <mxGeometry relative="1" as="geometry" />
        </mxCell>
      </root>
    </mxGraphModel>
  </diagram>
</mxfile>
